<svg xmlns="http://www.w3.org/2000/svg" width="36.354" height="29.937" viewBox="0 0 36.354 29.937">
    <defs>
        <style>
            .cls-1{fill:#231f20;opacity:.7}
        </style>
    </defs>
    <path id="currency" d="M35.1 15.03V9.613a3.2 3.2 0 0 0-3.2-3.2h-4.32L21.979.812a1.065 1.065 0 0 0-1.506 0l-2.236 2.236L16 .812a1.065 1.065 0 0 0-1.506 0L8.89 6.418H3.2A3.2 3.2 0 0 0 0 9.613v17.628a3.2 3.2 0 0 0 3.2 3.2h28.7a3.2 3.2 0 0 0 3.2-3.2v-5.418a2.133 2.133 0 0 0 1.255-1.941v-2.91A2.133 2.133 0 0 0 35.1 15.03zm-3.2 13.276h-2.5a3.182 3.182 0 0 0 .183-1.065v-5.228h3.387v5.229a1.066 1.066 0 0 1-1.07 1.064zm-28.709 0a1.066 1.066 0 0 1-1.061-1.065V9.613A1.066 1.066 0 0 1 3.2 8.548h23.189a1.066 1.066 0 0 1 1.065 1.065v5.229h-4a2.132 2.132 0 0 0-2.13 2.13v2.911a2.133 2.133 0 0 0 2.13 2.13h4v5.229a1.066 1.066 0 0 1-1.065 1.065zM32.97 9.613v5.229h-3.385V9.613a3.18 3.18 0 0 0-.185-1.065h2.5a1.066 1.066 0 0 1 1.07 1.065zm-9.52 10.269v-2.91h10.774v2.91H23.45zm1.122-13.464H17.88l3.346-3.346zm-9.7 0H11.9l3.346-3.346 1.483 1.483zm0 0" class="cls-1" transform="translate(0 -.5)"/>
</svg>
