<svg xmlns="http://www.w3.org/2000/svg" width="42.039" height="52.291" viewBox="0 0 42.039 52.291">
    <defs>
        <style>
            .cls-1{fill:#fcc113;stroke:#fcc113}.cls-2{fill:#ec2326}.cls-3{stroke:none}.cls-4{fill:none}
        </style>
    </defs>
    <g id="Group_1827" data-name="Group 1827" transform="translate(-35 -543)">
        <g id="Rectangle_1625" class="cls-1" data-name="Rectangle 1625">
            <path d="M0 0h16.036v19.243H0z" class="cls-3" transform="translate(48.175 550.484)"/>
            <path d="M.5.5h15.036v18.243H.5z" class="cls-4" transform="translate(48.175 550.484)"/>
        </g>
        <g id="trophy-for-sports" transform="translate(35 543)">
            <path id="Path_2793" d="M35.389 47.212c-.914-.029-3.424-.3-3.633-1.291-.149-.7-1.1-.811-1.863-.963-2.387-.474-3.6-2.414-3.847-4.85-.262-2.579 1.448-5.205 3.35-7.3C34.7 26.974 44.68 14.483 44.68 0h-4.887c-2.486 0-4.41 2.958-5.623 2.958H13.151C11.938 2.958 10.014 0 7.528 0H2.641c0 14.481 9.982 26.974 15.286 32.813 1.9 2.09 3.61 4.72 3.348 7.3-.248 2.436-1.46 4.377-3.847 4.85-.761.151-1.714.262-1.863.963-.212.994-2.719 1.262-3.633 1.291-.72.025-1.128.175-1.271.786-.526 2.244 1.83 2.824 4.1 3.422a44.918 44.918 0 0 0 8.9.871 45.064 45.064 0 0 0 8.9-.871c2.273-.6 4.633-1.172 4.1-3.422-.144-.616-.551-.766-1.272-.791zm.778-37.694c.772-3.406 3.464-6.657 5.656-6.657-.637 6.768-6.3 18.508-10.234 22.553a136.924 136.924 0 0 0 4.579-15.896zM5.494 2.861c2.193 0 4.883 3.251 5.658 6.657a136.19 136.19 0 0 0 4.578 15.894C11.792 21.369 6.131 9.631 5.494 2.861zM18.956 22.13l.9-5.236-3.8-3.707 5.258-.765 2.35-4.763 2.35 4.763 5.258.765-3.8 3.707.9 5.236-4.7-2.473z" class="cls-2" data-name="Path 2793" transform="translate(-2.641)"/>
        </g>
    </g>
</svg>
