<svg xmlns="http://www.w3.org/2000/svg" width="46" height="42.179" viewBox="0 0 46 42.179">
    <defs>
        <style>
            .cls-1{fill:#fcc113}
        </style>
    </defs>
    <path id="Path_2848" d="M13.926 29.76v13.928H0V33.98h11.183V32.5H0v-2.74zm2.11-9.812v2.743H27.22v1.479H16.037v19.518h13.926V19.949zm16.037 6.015v2.742h11.184v1.477H32.074v13.5H46V25.964zm-3.341-7.678l-2.293-2.005h-6.883l-2.294 2.005m13.1-12a9.049 9.049 0 0 1-.841 3.531 6.067 6.067 0 0 1-4.8 3.532v2.405h-3.44v-2.408a6.065 6.065 0 0 1-4.8-3.532 9.049 9.049 0 0 1-.841-3.531.633.633 0 0 1 .633-.633h1.362a15.438 15.438 0 0 1-.555-4.14h11.846a15.445 15.445 0 0 1-.555 4.14h1.361a.631.631 0 0 1 .633.633zm-9.085 4.65a7.408 7.408 0 0 1-3.23-4.016h-1.102c.161 1.376.915 4.527 4.335 5.138zm1.651-.484c-2.108-1-3.7-4.17-3.915-8.038h-.953c.158 4.441 2.276 7.973 4.87 8.035zm6.119-3.533h-1.1a7.415 7.415 0 0 1-3.231 4.016v1.122a4.769 4.769 0 0 0 3.664-2.785 7.611 7.611 0 0 0 .669-2.356z" class="cls-1" data-name="Path 2848" transform="translate(0 -1.509)"/>
</svg>
